# xmcd
#
# Track frame offsets:
#	150
#	16400
#	33069
#	55253
#	71824
#	90623
#	106413
#	119779
#	134732
#	152167
#	169977
#	186255
#	202672
#	223115
#	239449
#	258777
#	278969
#	296904
#
# Disc length: 4386 seconds
#
# Revision: 0
# Processed by: cddbd v1.4PL0 Copyright (c) Steve Scherf et al.
# Submitted via: EasyCDDAExtractor 4.6.9.1
#
DISCID=17112012
DTITLE=Shania Twain - Come On Over - (Austrailian Tour) - Disc 1
DYEAR=1999
DGENRE=Country
TTITLE0=You're Still The One
TTITLE1=When
TTITLE2=From This Moment On
TTITLE3=Black Eyes, Blue Tears
TTITLE4=I Won't Leave You Lonely
TTITLE5=I'm Holdin' On To Love (To Sav
TTITLE6=Come On Over
TTITLE7=You've Got A Way
TTITLE8=Whatever You Do! Don't!
TTITLE9=Man! I Feel Like A Woman!
TTITLE10=Love Gets Me Every Time
TTITLE11=Don't Be Stupid (You Know I Lo
TTITLE12=That Don't Impress Me Much
TTITLE13=Honey, I'm Home
TTITLE14=If You Wanna Touch Her, Ask!
TTITLE15=Rock This Country!
TTITLE16=God Bless The Child
TTITLE17=(If You're Not in It for Love)
EXTD=
EXTT0=
EXTT1=
EXTT2=
EXTT3=
EXTT4=
EXTT5=
EXTT6=
EXTT7=
EXTT8=
EXTT9=
EXTT10=
EXTT11=
EXTT12=
EXTT13=
EXTT14=
EXTT15=
EXTT16=
EXTT17=
PLAYORDER=
